# xmcd
#
# Track frame offsets: 
#        150
#        12944
#        30474
#        46365
#        76415
#        95813
#        110401
#        140249
#
# Disc length: 2041 seconds
#
# Revision: 0
# Processed by: cddbd v1.5.2PL0 Copyright (c) Steve Scherf et al.
# Submitted via: ExactAudioCopy v0.99pb5
#
DISCID=6607f708
DTITLE=Canned Heat - Collage (LP)
DYEAR=1970
DGENRE=Blues
TTITLE0=Going up The Country
TTITLE1=My Crime
TTITLE2=Huautla
TTITLE3=Sandy's Blues
TTITLE4=Canned Heat
TTITLE5=Dust My Brown
TTITLE6=Catfish Blues
TTITLE7=Evil Woman
EXTD=
EXTT0=
EXTT1=
EXTT2=
EXTT3=
EXTT4=
EXTT5=
EXTT6=
EXTT7=
PLAYORDER=
